<svg width="1440" height="771" viewBox="0 0 1440 771" fill="none" xmlns="http://www.w3.org/2000/svg">
<g clip-path="url(#clip0_18_9)">
<rect width="100%" height="100%" fill="url(#paint0_linear_18_9)"/>
<path d="M1152.91 913C1280.61 765.859 1513 674.162 1513 476.908C1513 279.654 1450.19 292.449 1450.19 44.5481C1343.42 170.897 1245.61 126.887 1152.91 -85C1058.35 138.934 991.702 158.103 866.088 44.5481C866.088 292.449 797 292.449 797 476.908C797 661.368 1010.54 765.859 1152.91 913Z" fill="#FFC700" fill-opacity="0.22"/>
<path d="M1125.37 298.704V362.416H1057.32V555H976.952V362.416H909.62V298.704H1125.37ZM1302.1 555L1227.53 443.866V555H1147.17V298.704H1227.53V406.58L1301.02 298.704H1391.88L1303.55 421.422L1397.67 555H1302.1Z" fill="white" fill-opacity="0.04"/>
</g>
<defs>
<linearGradient id="paint0_linear_18_9" x1="0" y1="0" x2="641.666" y2="1198.44" gradientUnits="userSpaceOnUse">
<stop stop-color="#FDD819"/>
<stop offset="1" stop-color="#E80505"/>
</linearGradient>
<clipPath id="clip0_18_9">
<rect width="1440" height="771" fill="white"/>
</clipPath>
</defs>
</svg>
