<svg width="793" height="1018" viewBox="0 0 793 1018" fill="none" xmlns="http://www.w3.org/2000/svg">
<path d="M365.907 1008C493.614 860.859 726 769.162 726 571.908C726 374.654 663.193 387.449 663.193 139.548C556.421 265.897 458.608 221.887 365.907 10C271.345 233.934 204.702 253.103 79.0879 139.548C79.0879 387.449 10 387.449 10 571.908C10 756.368 223.544 860.859 365.907 1008Z" fill="#FFC700" fill-opacity="0.22"/>
<path d="M338.372 393.704V457.416H270.316V650H189.952V457.416H122.62V393.704H338.372ZM515.104 650L440.532 538.866V650H360.168V393.704H440.532V501.58L514.018 393.704H604.88L516.552 516.422L610.672 650H515.104Z" fill="white" fill-opacity="0.04"/>
</svg>
